<svg width="707" height="199" viewBox="0 0 707 199" fill="none" xmlns="http://www.w3.org/2000/svg">
<g clip-path="url(#clip0_598_207)">
<g clip-path="url(#clip1_598_207)">
<path d="M471.872 40.3238C471.872 24.9299 460.929 13.2066 440.175 13.2066H399.098V109.952H414.302V70.6914H441.87C449.534 70.6914 454.798 73.6505 454.798 82.5602V109.969H470.144V81.1535C470.144 68.864 463.172 63.916 454.521 63.4956V62.8004C462.044 60.5365 471.855 54.7475 471.855 40.3399L471.872 40.3238ZM438.334 57.9816H414.319L414.464 25.6414H437.915C450.843 25.6414 456.249 32.7077 456.249 41.4558C456.249 50.2037 450.567 57.9816 438.351 57.9816H438.334ZM62.1211 11.347L51.2753 0.561523L40.365 11.4117L51.2269 22.1971L62.1372 11.347H62.1211ZM150.146 13.2066L111.218 109.952H127.567L137.799 84.3875H179.714L189.801 109.952H206.425L167.625 13.2066H150.146ZM141.624 71.9688L158.394 29.1664H159.104L175.582 71.9688H141.624ZM102.47 23.135L91.6888 12.1717L61.2656 41.7143C55.7299 47.083 46.7403 47.083 41.2204 41.7143L10.7812 12.1555L0 23.135V109.969H15.3649V38.0438L30.4232 52.6617C36.1525 58.2404 43.7058 61.0215 51.243 61.0215C58.7802 61.0215 66.3174 58.2404 72.0632 52.6617L86.8308 38.3187V109.952H102.486V23.135H102.47ZM535.77 13.2227H518.29L479.361 109.969H495.71L505.943 84.4037H547.857L557.945 109.969H574.567L535.783 13.2227H535.77ZM509.769 71.985L526.536 29.1826H527.248L543.725 71.985H509.769ZM282.393 87.379H281.684L232.522 13.2066H215.334V109.952H230.682V36.6532H231.393L279.844 109.952L297.742 110.098V13.2066H282.393V87.3628V87.379ZM307.781 25.8031H340.899V109.985H355.829L355.974 25.8031H389.076V13.2066H307.797V25.7707L307.781 25.8031Z" fill="url(#paint0_linear_598_207)"/>
</g>
<path d="M595.561 136.68V66.0951H604.631L605.419 73.5874H606.011C607.325 71.1557 609.297 69.1184 611.926 67.4753C614.62 65.7665 617.808 64.9122 621.488 64.9122C625.3 64.9122 628.783 65.898 631.938 67.8696C635.093 69.7756 637.59 72.6345 639.43 76.4463C641.336 80.1925 642.289 84.8916 642.289 90.5437C642.289 96.13 641.303 100.829 639.332 104.641C637.426 108.453 634.83 111.345 631.544 113.316C628.258 115.222 624.577 116.175 620.502 116.175C616.888 116.175 613.865 115.452 611.433 114.006C609.001 112.56 607.194 110.917 606.011 109.077V136.68H595.561ZM618.728 106.218C622.408 106.218 625.464 104.904 627.896 102.275C630.394 99.6461 631.642 95.7028 631.642 90.4451C631.642 85.1873 630.394 81.2769 627.896 78.7137C625.464 76.1506 622.408 74.869 618.728 74.869C614.982 74.869 611.86 76.1835 609.363 78.8123C606.931 81.3755 605.715 85.2859 605.715 90.5437C605.715 95.7357 606.931 99.6461 609.363 102.275C611.86 104.904 614.982 106.218 618.728 106.218ZM661.967 136.68L673.6 110.95H670.741L651.715 66.0951H663.052L677.642 101.881L693.119 66.0951H704.062L673.009 136.68H661.967Z" fill="url(#paint1_linear_598_207)"/>
<path d="M10.8863 154.451C9.66562 154.451 8.63358 154.207 7.7902 153.719C6.96901 153.208 6.33647 152.509 5.89259 151.621H5.69284L5.39321 154.052H2.36369V130.082H5.89259V139.67C6.29208 139.004 6.92462 138.416 7.7902 137.905C8.65578 137.395 9.68781 137.14 10.8863 137.14C12.2623 137.14 13.4941 137.473 14.5817 138.138C15.6692 138.782 16.5237 139.748 17.1451 141.035C17.7887 142.322 18.1105 143.909 18.1105 145.795C18.1105 147.682 17.7887 149.269 17.1451 150.556C16.5237 151.843 15.6692 152.82 14.5817 153.486C13.4941 154.129 12.2623 154.451 10.8863 154.451ZM10.1539 151.089C11.419 151.089 12.4621 150.656 13.2833 149.79C14.1267 148.903 14.5484 147.582 14.5484 145.829C14.5484 144.053 14.1267 142.722 13.2833 141.834C12.4621 140.946 11.419 140.502 10.1539 140.502C8.88882 140.502 7.83459 140.946 6.9912 141.834C6.17001 142.699 5.75942 144.02 5.75942 145.795C5.75942 147.549 6.17001 148.869 6.9912 149.757C7.83459 150.645 8.88882 151.089 10.1539 151.089ZM24.7225 161.376L28.6509 152.687H27.6855L21.2602 137.539H25.0887L30.0159 149.624L35.2426 137.539H38.938L28.4512 161.376H24.7225ZM69.873 154.451C67.9865 154.451 66.3552 153.963 64.9792 152.986C63.6031 152.01 62.5489 150.623 61.8165 148.825C61.0841 147.027 60.7179 144.886 60.7179 142.4C60.7179 139.914 61.0841 137.772 61.8165 135.975C62.5489 134.177 63.6031 132.79 64.9792 131.813C66.3552 130.837 67.9865 130.348 69.873 130.348C71.7817 130.348 73.413 130.837 74.7669 131.813C76.1429 132.79 77.1971 134.177 77.9295 135.975C78.662 137.772 79.0282 139.914 79.0282 142.4C79.0282 145.152 78.5732 147.482 77.6632 149.391C76.7754 151.3 75.5215 152.676 73.9013 153.519L78.895 159.145H74.4007L70.2059 154.451C70.095 154.451 69.984 154.451 69.873 154.451ZM69.873 151.122C71.5376 151.122 72.8803 150.379 73.9013 148.892C74.9222 147.382 75.4327 145.218 75.4327 142.4C75.4327 139.581 74.9222 137.428 73.9013 135.941C72.8803 134.432 71.5376 133.677 69.873 133.677C68.1862 133.677 66.8324 134.432 65.8115 135.941C64.8127 137.428 64.3133 139.581 64.3133 142.4C64.3133 145.218 64.8127 147.382 65.8115 148.892C66.8324 150.379 68.1862 151.122 69.873 151.122ZM88.3701 154.451C86.3726 154.451 84.8523 153.841 83.8091 152.62C82.7882 151.377 82.2777 149.58 82.2777 147.227V137.539H85.8066V146.794C85.8066 148.148 86.0951 149.213 86.6722 149.99C87.2714 150.745 88.1814 151.122 89.4021 151.122C90.6228 151.122 91.6437 150.712 92.4649 149.89C93.2861 149.069 93.6967 147.882 93.6967 146.328V137.539H97.2256V154.052H94.1628L93.8631 151.588H93.6967C93.2528 152.387 92.5648 153.064 91.6326 153.619C90.7005 154.174 89.6129 154.451 88.3701 154.451ZM108.299 154.451C106.989 154.451 105.891 154.229 105.003 153.785C104.115 153.319 103.449 152.709 103.005 151.954C102.561 151.178 102.339 150.334 102.339 149.424C102.339 147.804 102.928 146.539 104.104 145.629C105.302 144.719 106.989 144.264 109.164 144.264H113.426V143.898C113.426 141.412 112.271 140.169 109.963 140.169C109.009 140.169 108.199 140.38 107.533 140.802C106.889 141.201 106.456 141.856 106.235 142.766H102.706C102.883 141.035 103.627 139.67 104.936 138.671C106.268 137.65 107.944 137.14 109.963 137.14C112.405 137.14 114.18 137.739 115.29 138.937C116.4 140.136 116.954 141.789 116.954 143.898V154.052H113.958L113.659 151.621H113.426C112.937 152.398 112.327 153.064 111.594 153.619C110.862 154.174 109.763 154.451 108.299 154.451ZM108.964 151.488C110.407 151.488 111.484 151.056 112.194 150.19C112.926 149.302 113.326 148.181 113.392 146.828H109.53C108.265 146.828 107.366 147.038 106.834 147.46C106.323 147.86 106.068 148.426 106.068 149.158C106.068 149.89 106.323 150.467 106.834 150.889C107.366 151.289 108.077 151.488 108.964 151.488ZM122.368 154.052V137.539H125.431L125.73 140.003H125.897C126.341 139.204 127.029 138.527 127.961 137.972C128.893 137.417 129.969 137.14 131.19 137.14C133.21 137.14 134.73 137.75 135.751 138.971C136.772 140.191 137.282 141.989 137.282 144.364V154.052H133.754V144.797C133.754 143.421 133.465 142.355 132.888 141.601C132.311 140.846 131.401 140.469 130.158 140.469C128.937 140.469 127.916 140.879 127.095 141.701C126.296 142.522 125.897 143.709 125.897 145.263V154.052H122.368ZM151.518 154.052C149.898 154.052 148.611 153.663 147.656 152.887C146.702 152.088 146.225 150.678 146.225 148.659V140.535H142.063V137.539H144.527C145.659 137.539 146.325 136.984 146.524 135.875L147.024 133.211H149.754V137.539H156.279V140.535H149.754V148.592C149.754 149.458 149.942 150.068 150.32 150.423C150.719 150.756 151.396 150.922 152.35 150.922H156.212V154.052H151.518ZM168.217 154.451C166.22 154.451 164.7 153.841 163.657 152.62C162.636 151.377 162.125 149.58 162.125 147.227V137.539H165.654V146.794C165.654 148.148 165.943 149.213 166.52 149.99C167.119 150.745 168.029 151.122 169.25 151.122C170.47 151.122 171.491 150.712 172.312 149.89C173.134 149.069 173.544 147.882 173.544 146.328V137.539H177.073V154.052H174.01L173.711 151.588H173.544C173.1 152.387 172.412 153.064 171.48 153.619C170.548 154.174 169.46 154.451 168.217 154.451ZM180.489 154.052V137.539H183.419L183.718 139.47H183.885C184.173 138.782 184.617 138.227 185.216 137.806C185.816 137.362 186.526 137.14 187.347 137.14C188.146 137.14 188.845 137.339 189.444 137.739C190.044 138.138 190.488 138.715 190.776 139.47H190.909C191.198 138.804 191.653 138.249 192.274 137.806C192.896 137.362 193.661 137.14 194.571 137.14C195.792 137.14 196.713 137.539 197.334 138.338C197.978 139.137 198.3 140.258 198.3 141.701V154.052H194.904V142.4C194.904 141.734 194.76 141.212 194.471 140.835C194.205 140.436 193.772 140.236 193.173 140.236C192.574 140.236 192.074 140.469 191.675 140.935C191.298 141.401 191.109 142.056 191.109 142.899V154.052H187.68V142.4C187.68 141.734 187.547 141.212 187.28 140.835C187.014 140.436 186.581 140.236 185.982 140.236C185.383 140.236 184.883 140.469 184.484 140.935C184.085 141.401 183.885 142.056 183.885 142.899V154.052H180.489ZM220.513 154.052L227.471 130.748H231.665L238.623 154.052H234.795L233.23 148.459H225.906L224.341 154.052H220.513ZM229.468 135.741L226.705 145.629H232.431L229.668 135.741H229.468ZM242.106 154.052V150.989H246.134V141.701C246.134 140.968 245.779 140.602 245.069 140.602H242.439V137.539H246.4C247.31 137.539 248.054 137.806 248.631 138.338C249.208 138.849 249.496 139.57 249.496 140.502V140.902H249.663C249.907 139.659 250.429 138.727 251.228 138.105C252.049 137.462 253.236 137.14 254.79 137.14H257.353V140.868H253.758C252.448 140.868 251.438 141.323 250.728 142.233C250.018 143.143 249.663 144.231 249.663 145.496V150.989H254.79V154.052H242.106ZM269.725 154.451C268.193 154.451 266.817 154.096 265.597 153.386C264.398 152.676 263.455 151.677 262.767 150.39C262.079 149.08 261.735 147.549 261.735 145.795C261.735 144.042 262.079 142.522 262.767 141.235C263.477 139.947 264.431 138.949 265.63 138.238C266.828 137.506 268.193 137.14 269.725 137.14C271.833 137.14 273.531 137.672 274.818 138.738C276.128 139.781 276.96 141.223 277.315 143.066H273.62C273.398 142.267 272.943 141.634 272.255 141.168C271.589 140.702 270.734 140.469 269.691 140.469C268.937 140.469 268.215 140.669 267.527 141.068C266.862 141.468 266.318 142.067 265.896 142.866C265.497 143.643 265.297 144.619 265.297 145.795C265.297 146.95 265.497 147.926 265.896 148.725C266.318 149.524 266.862 150.134 267.527 150.556C268.215 150.956 268.937 151.155 269.691 151.155C270.757 151.155 271.611 150.922 272.255 150.456C272.898 149.99 273.353 149.347 273.62 148.525H277.315C276.871 150.345 276.006 151.788 274.718 152.853C273.431 153.919 271.767 154.451 269.725 154.451ZM281.896 154.052V130.082H285.425V140.003C285.869 139.182 286.579 138.505 287.556 137.972C288.532 137.417 289.631 137.14 290.852 137.14C292.894 137.14 294.447 137.761 295.513 139.004C296.578 140.225 297.111 141.989 297.111 144.297V154.052H293.582V144.797C293.582 143.421 293.249 142.355 292.583 141.601C291.917 140.846 290.996 140.469 289.82 140.469C288.599 140.469 287.556 140.879 286.69 141.701C285.847 142.522 285.425 143.709 285.425 145.263V154.052H281.896ZM309.082 135.009C308.306 135.009 307.651 134.765 307.118 134.277C306.608 133.766 306.353 133.145 306.353 132.412C306.353 131.68 306.608 131.07 307.118 130.581C307.651 130.093 308.306 129.849 309.082 129.849C309.881 129.849 310.536 130.093 311.047 130.581C311.579 131.07 311.846 131.68 311.846 132.412C311.846 133.145 311.579 133.766 311.047 134.277C310.536 134.765 309.881 135.009 309.082 135.009ZM302.457 154.052V150.989H307.651V141.701C307.651 140.968 307.296 140.602 306.586 140.602H302.924V137.539H307.218C308.594 137.539 309.593 137.861 310.214 138.505C310.858 139.126 311.18 140.125 311.18 141.501V150.989H316.373V154.052H302.457ZM331.175 154.052C329.555 154.052 328.267 153.663 327.313 152.887C326.359 152.088 325.882 150.678 325.882 148.659V140.535H321.72V137.539H324.184C325.316 137.539 325.981 136.984 326.181 135.875L326.681 133.211H329.41V137.539H335.936V140.535H329.41V148.592C329.41 149.458 329.599 150.068 329.976 150.423C330.376 150.756 331.053 150.922 332.007 150.922H335.869V154.052H331.175ZM349.539 154.451C347.941 154.451 346.531 154.096 345.311 153.386C344.09 152.654 343.136 151.644 342.448 150.356C341.76 149.069 341.416 147.571 341.416 145.862C341.416 144.131 341.749 142.611 342.414 141.301C343.102 139.992 344.057 138.971 345.278 138.238C346.52 137.506 347.952 137.14 349.572 137.14C351.17 137.14 352.546 137.506 353.7 138.238C354.854 138.949 355.742 139.903 356.364 141.101C357.007 142.3 357.329 143.62 357.329 145.063C357.329 145.285 357.329 145.529 357.329 145.795C357.329 146.04 357.318 146.317 357.296 146.628H344.878C344.989 148.159 345.488 149.324 346.376 150.123C347.264 150.9 348.307 151.289 349.506 151.289C350.549 151.289 351.37 151.078 351.969 150.656C352.591 150.212 353.046 149.613 353.334 148.858H356.896C356.497 150.434 355.664 151.766 354.399 152.853C353.134 153.919 351.514 154.451 349.539 154.451ZM349.539 140.203C348.451 140.203 347.486 140.535 346.642 141.201C345.799 141.845 345.255 142.755 345.011 143.931H353.8C353.711 142.821 353.279 141.923 352.502 141.235C351.725 140.547 350.737 140.203 349.539 140.203ZM369.534 154.451C368.003 154.451 366.626 154.096 365.406 153.386C364.207 152.676 363.264 151.677 362.576 150.39C361.888 149.08 361.544 147.549 361.544 145.795C361.544 144.042 361.888 142.522 362.576 141.235C363.286 139.947 364.241 138.949 365.439 138.238C366.638 137.506 368.003 137.14 369.534 137.14C371.642 137.14 373.34 137.672 374.628 138.738C375.937 139.781 376.769 141.223 377.124 143.066H373.429C373.207 142.267 372.752 141.634 372.064 141.168C371.398 140.702 370.544 140.469 369.501 140.469C368.746 140.469 368.025 140.669 367.337 141.068C366.671 141.468 366.127 142.067 365.705 142.866C365.306 143.643 365.106 144.619 365.106 145.795C365.106 146.95 365.306 147.926 365.705 148.725C366.127 149.524 366.671 150.134 367.337 150.556C368.025 150.956 368.746 151.155 369.501 151.155C370.566 151.155 371.42 150.922 372.064 150.456C372.708 149.99 373.163 149.347 373.429 148.525H377.124C376.681 150.345 375.815 151.788 374.528 152.853C373.24 153.919 371.576 154.451 369.534 154.451ZM391.061 154.052C389.44 154.052 388.153 153.663 387.199 152.887C386.244 152.088 385.767 150.678 385.767 148.659V140.535H381.606V137.539H384.069C385.201 137.539 385.867 136.984 386.067 135.875L386.566 133.211H389.296V137.539H395.821V140.535H389.296V148.592C389.296 149.458 389.485 150.068 389.862 150.423C390.262 150.756 390.938 150.922 391.893 150.922H395.755V154.052H391.061ZM409.358 154.451C407.183 154.451 405.452 153.941 404.164 152.92C402.877 151.899 402.145 150.545 401.967 148.858H405.596C405.729 149.635 406.117 150.268 406.761 150.756C407.427 151.244 408.304 151.488 409.391 151.488C410.434 151.488 411.233 151.277 411.788 150.856C412.365 150.412 412.654 149.901 412.654 149.324C412.654 148.481 412.31 147.904 411.622 147.593C410.956 147.282 409.968 147.049 408.659 146.894C407.527 146.761 406.495 146.506 405.563 146.128C404.653 145.729 403.931 145.196 403.399 144.53C402.866 143.842 402.6 142.988 402.6 141.967C402.6 140.524 403.166 139.359 404.298 138.471C405.429 137.584 407.005 137.14 409.025 137.14C411.045 137.14 412.609 137.595 413.719 138.505C414.829 139.415 415.472 140.657 415.65 142.233H412.254C412.165 141.567 411.821 141.046 411.222 140.669C410.623 140.269 409.879 140.069 408.992 140.069C408.082 140.069 407.36 140.247 406.828 140.602C406.295 140.935 406.029 141.379 406.029 141.934C406.029 143.132 407.316 143.865 409.89 144.131C411.111 144.264 412.199 144.497 413.153 144.83C414.107 145.141 414.862 145.64 415.417 146.328C415.972 146.994 416.249 147.937 416.249 149.158C416.271 150.157 415.983 151.056 415.384 151.855C414.807 152.654 413.996 153.286 412.953 153.752C411.932 154.218 410.734 154.451 409.358 154.451Z" fill="url(#paint2_linear_598_207)"/>
<path d="M544.3 131.913C543.09 132.123 538.922 132.879 535.046 133.589C529.68 134.567 527.107 134.986 524.22 135.324L520.437 135.778L517.702 135.522C515.339 135.289 513.93 135.254 507.341 135.184L499.717 135.103L495.352 135.568L490.986 136.022L484.642 137.372C478.1 138.758 477.751 138.851 471.628 140.876L470.08 141.388L466.39 139.898L462.7 138.397L459.44 137.698C456.518 137.058 455.971 136.977 454.167 136.884L452.142 136.779L446.833 137.617L441.514 138.443L437.568 140.259L433.621 142.075L431.677 143.856L429.733 145.649L429.361 147.395L429 149.141L429.233 150.817C429.419 152.191 429.512 152.563 429.745 152.854C431.875 155.613 432.096 155.846 433.435 156.812C434.692 157.72 434.925 157.837 437.335 158.768C439.686 159.687 439.989 159.769 441.001 159.839C441.607 159.885 442.48 160.048 442.969 160.2C443.76 160.444 444.156 160.491 447.218 160.584L450.593 160.689L454.668 160.118C458.125 159.629 459.114 159.455 461.163 158.908C463.514 158.291 463.759 158.197 468.718 155.997C472.163 154.472 474.864 153.355 476.901 152.633L479.951 151.551L484.77 150.666C487.424 150.189 490.02 149.735 490.544 149.665C491.068 149.595 491.999 149.444 492.628 149.327L493.757 149.106L497.493 149.444C499.542 149.63 501.37 149.781 501.556 149.781C502.161 149.781 501.87 149.991 500.741 150.375C500.113 150.585 497.901 151.574 495.829 152.575L492.057 154.403L489.019 156.964L485.981 159.536L485.026 161.212L484.072 162.889L483.711 166.02L483.35 169.151L483.851 171.084L484.34 173.004L485.667 174.844C486.854 176.473 487.261 176.916 489.368 178.918C491.417 180.85 491.848 181.199 492.523 181.502C492.965 181.688 494.094 182.2 495.061 182.631C496.655 183.365 496.865 183.423 497.587 183.423C498.122 183.423 498.529 183.493 498.867 183.656C499.263 183.842 500.322 183.981 503.966 184.354C506.492 184.61 509.472 184.924 510.578 185.052C511.695 185.18 512.684 185.285 512.801 185.285C512.929 185.285 513.395 185.856 514.105 186.88C515.094 188.312 515.269 188.673 515.816 190.174C516.2 191.234 516.735 192.409 517.259 193.317L518.086 194.784L519.692 195.133L521.287 195.482L522.986 195.25L524.686 195.017L526.094 195.25L527.515 195.482L528.504 195.133C529.424 194.796 529.528 194.726 530.076 194.039C530.611 193.364 530.704 193.143 531.158 191.56C531.554 190.186 531.833 189.464 532.497 188.219C533.219 186.845 533.381 186.426 533.661 185.169C533.847 184.366 533.998 183.586 533.998 183.423C533.998 182.724 533.51 181.618 532.38 179.779L531.181 177.847L531.891 177.183C532.951 176.206 533.102 176.112 533.87 175.868C534.569 175.647 534.592 175.658 535.651 175.88C536.583 176.089 536.839 176.206 537.654 176.788C538.177 177.148 540.669 178.836 543.206 180.547L547.816 183.644L550.773 184.866C552.414 185.53 554.16 186.193 554.672 186.321C555.452 186.519 556.279 186.566 560.167 186.682L564.741 186.81L564.997 186.542C565.195 186.333 565.603 186.193 566.802 185.925L568.35 185.588L570.049 184.249L571.761 182.899L572.575 181.502L573.379 180.105L573.658 178.254L573.926 176.403L573.449 174.122L572.96 171.84L571.842 170.362L570.725 168.872L569.328 168.127C568.559 167.72 567.756 167.347 567.547 167.3C567.209 167.231 564.811 165.973 564.578 165.741C564.52 165.682 564.788 165.531 565.16 165.415C565.579 165.263 566.988 164.425 568.92 163.156L572.017 161.131L574.275 158.768L576.545 156.405L577.267 154.344L578 152.284V149.956V147.616L576.801 144.985C575.625 142.378 575.602 142.331 574.566 141.179C573.553 140.061 573.344 139.898 569.095 137C566.662 135.347 564.602 133.95 564.52 133.904C564.439 133.857 563.554 133.554 562.541 133.24C559.654 132.332 557.489 132.006 552.449 131.738C550.144 131.61 547.862 131.517 547.385 131.517C546.908 131.529 545.523 131.703 544.3 131.913ZM457.019 141.33L457.229 141.621L457.845 141.354L458.462 141.097L461.128 141.482C463.363 141.796 463.899 141.912 464.411 142.18C464.841 142.401 465.272 142.518 465.843 142.564L466.646 142.622L462.932 144.438C460.243 145.754 458.171 146.662 455.482 147.709L451.757 149.164L449.208 149.607L446.67 150.049L445.483 149.723C444.482 149.444 444.238 149.327 443.819 148.932C443.376 148.501 443.318 148.396 443.318 147.919C443.318 146.941 443.481 146.662 444.796 145.335C445.879 144.252 446.1 144.077 446.426 144.077C446.705 144.077 446.892 143.973 447.159 143.682C447.45 143.367 447.648 143.274 448.242 143.169C448.673 143.1 449.511 142.809 450.256 142.448C451.431 141.901 451.723 141.819 453.748 141.47C456.53 140.981 456.74 140.969 457.019 141.33ZM553.892 145.474C556.837 145.695 556.861 145.707 557.268 146.033C557.582 146.289 557.699 146.475 557.722 146.778C557.757 147.174 557.757 147.174 556.733 147.651C555.65 148.163 554.241 148.443 550.4 148.92C548.852 149.106 548.794 149.106 547.618 148.862C546.966 148.722 546.058 148.617 545.604 148.617C545.15 148.617 543.136 148.35 541.111 148.024C537.817 147.5 536.978 147.337 537.502 147.337C537.991 147.337 542.089 146.603 542.729 146.406C543.148 146.278 543.811 146.173 544.231 146.173C544.638 146.173 545.325 146.068 545.767 145.94C546.489 145.719 549.55 145.288 550.528 145.253C550.749 145.253 552.263 145.346 553.892 145.474ZM520.728 162.528C525.64 162.796 526.444 162.865 526.874 163.063C527.247 163.226 527.643 163.284 528.446 163.284C529.074 163.284 529.447 163.331 529.342 163.389C529.249 163.436 528.411 163.68 527.48 163.913C526.548 164.157 524.453 164.716 522.823 165.159C519.005 166.206 516.561 166.544 512.684 166.544C510.426 166.544 509.844 166.497 506.69 166.078C502.161 165.485 502.452 165.543 502.452 165.228C502.452 165.031 502.65 164.868 503.302 164.53C504.07 164.123 504.478 164.006 507.982 163.331C512.929 162.353 514.174 162.144 514.675 162.19C514.896 162.214 517.62 162.365 520.728 162.528Z" fill="#302E2D"/>
</g>
<defs>
<linearGradient id="paint0_linear_598_207" x1="443.321" y1="8.98074" x2="282.426" y2="247.176" gradientUnits="userSpaceOnUse">
<stop offset="0.372396" stop-color="#302E2D"/>
</linearGradient>
<linearGradient id="paint1_linear_598_207" x1="681.02" y1="21.0246" x2="580.298" y2="44.8507" gradientUnits="userSpaceOnUse">
<stop offset="0.372396" stop-color="#FF97D6"/>
<stop offset="0.802083" stop-color="#F8B994"/>
</linearGradient>
<linearGradient id="paint2_linear_598_207" x1="325.628" y1="122.406" x2="273.321" y2="252.403" gradientUnits="userSpaceOnUse">
<stop offset="0.372396" stop-color="#FF97D6"/>
<stop offset="0.802083" stop-color="#F8B994"/>
</linearGradient>
<clipPath id="clip0_598_207">
<rect width="707" height="198.601" fill="white"/>
</clipPath>
<clipPath id="clip1_598_207">
<rect width="575.066" height="109.536" fill="white" transform="translate(0 0.561523)"/>
</clipPath>
</defs>
</svg>
