<svg width="259" height="94" viewBox="0 0 259 94" fill="none" xmlns="http://www.w3.org/2000/svg">
<path d="M117.68 6.21506C117.022 6.32896 114.756 6.74029 112.649 7.1263C109.732 7.65787 108.333 7.88568 106.764 8.06919L104.707 8.31599L103.22 8.17677C101.936 8.05021 101.17 8.03123 97.5883 7.99326L93.4434 7.94896L91.0703 8.20209L88.6973 8.44888L85.2484 9.18295C81.692 9.93599 81.5022 9.98662 78.1736 11.0877L77.332 11.3661L75.3259 10.5562L73.3199 9.73982L71.548 9.36013C69.9597 9.01209 69.6623 8.96779 68.6814 8.91716L67.5803 8.86021L64.6947 9.31584L61.8027 9.76513L59.6575 10.7523L57.5123 11.7395L56.4555 12.7077L55.3987 13.6822L55.1962 14.6315L55 15.5807L55.1266 16.4919C55.2278 17.2386 55.2784 17.4411 55.405 17.5994C56.563 19.0991 56.6833 19.2257 57.411 19.7509C58.0945 20.2445 58.221 20.3078 59.5309 20.814C60.8092 21.314 60.9738 21.3583 61.5243 21.3962C61.8534 21.4215 62.328 21.5101 62.5938 21.5924C63.0241 21.7253 63.2392 21.7506 64.9035 21.8012L66.7387 21.8582L68.9535 21.5481C70.833 21.2823 71.3709 21.1874 72.4846 20.89C73.7629 20.5546 73.8958 20.504 76.5916 19.3079C78.4647 18.479 79.9328 17.8715 81.0402 17.4791L82.6982 16.8906L85.318 16.4097C86.7609 16.1502 88.172 15.9034 88.4568 15.8654C88.7416 15.8275 89.2478 15.7452 89.5895 15.6819L90.2034 15.5617L92.2347 15.7452C93.3484 15.8465 94.342 15.9287 94.4432 15.9287C94.7723 15.9287 94.6141 16.0426 94.0002 16.2515C93.6585 16.3654 92.4562 16.9033 91.3298 17.4475L89.2795 18.441L87.6278 19.8332L85.9762 21.2317L85.4573 22.1429L84.9384 23.0542L84.7422 24.7565L84.546 26.4587L84.8181 27.5092L85.0839 28.5533L85.8053 29.5532C86.4508 30.4391 86.6723 30.6796 87.8177 31.768C88.9314 32.8185 89.1656 33.0083 89.5326 33.1729C89.7731 33.2741 90.3869 33.5526 90.9121 33.7867C91.7791 34.1854 91.893 34.217 92.2853 34.217C92.5764 34.217 92.7979 34.255 92.9814 34.3436C93.1966 34.4448 93.7724 34.5208 95.7531 34.7233C97.1263 34.8625 98.7463 35.0333 99.3475 35.1029C99.955 35.1726 100.493 35.2295 100.556 35.2295C100.626 35.2295 100.879 35.5396 101.265 36.0965C101.803 36.8748 101.898 37.071 102.195 37.8873C102.404 38.4632 102.695 39.1023 102.98 39.5959L103.429 40.3933L104.302 40.5831L105.169 40.7729L106.093 40.6464L107.017 40.5198L107.783 40.6464L108.555 40.7729L109.093 40.5831C109.593 40.3996 109.65 40.3616 109.947 39.9883C110.238 39.6212 110.289 39.501 110.536 38.6404C110.751 37.8937 110.903 37.5013 111.263 36.8242C111.656 36.0775 111.744 35.8497 111.896 35.1662C111.997 34.7296 112.08 34.3056 112.08 34.217C112.08 33.8373 111.814 33.2362 111.2 32.2363L110.548 31.1858L110.934 30.8251C111.51 30.2936 111.592 30.2429 112.01 30.1101C112.39 29.9898 112.402 29.9962 112.978 30.1164C113.485 30.2303 113.624 30.2936 114.067 30.61C114.351 30.8062 115.706 31.7237 117.085 32.654L119.591 34.3372L121.199 35.0017C122.091 35.3624 123.04 35.7231 123.318 35.7927C123.742 35.9003 124.192 35.9256 126.305 35.9889L128.792 36.0585L128.931 35.9129C129.039 35.799 129.261 35.7231 129.912 35.5776L130.754 35.394L131.678 34.6663L132.608 33.9322L133.051 33.1729L133.488 32.4135L133.64 31.4073L133.785 30.4012L133.526 29.1608L133.26 27.9205L132.652 27.1169L132.045 26.3069L131.286 25.9019C130.868 25.6804 130.431 25.4779 130.317 25.4526C130.134 25.4146 128.83 24.7312 128.704 24.6046C128.672 24.5729 128.818 24.4907 129.02 24.4274C129.248 24.3451 130.014 23.8895 131.064 23.1997L132.747 22.0986L133.975 20.814L135.209 19.5294L135.601 18.4094L136 17.2893V16.0236V14.7517L135.348 13.3215C134.709 11.904 134.696 11.8787 134.133 11.2522C133.583 10.6447 133.469 10.5561 131.159 8.98045C129.836 8.08185 128.716 7.32248 128.672 7.29716C128.628 7.27185 128.147 7.10732 127.596 6.93646C126.027 6.44287 124.85 6.26568 122.11 6.12013C120.857 6.05052 119.616 5.9999 119.357 5.9999C119.098 6.00623 118.345 6.10115 117.68 6.21506ZM70.2318 11.3345L70.3457 11.4927L70.6811 11.3472L71.0165 11.2079L72.4656 11.4168C73.6806 11.5876 73.9717 11.6509 74.2502 11.7965C74.4843 11.9167 74.7184 11.98 75.0285 12.0053L75.4652 12.0369L73.4465 13.0241C71.9847 13.7392 70.8583 14.2328 69.3965 14.8023L67.3715 15.5933L65.9856 15.8338L64.6061 16.0743L63.9606 15.8971C63.4164 15.7452 63.2835 15.6819 63.0557 15.4668C62.8152 15.2326 62.7836 15.1757 62.7836 14.9162C62.7836 14.3847 62.8722 14.2328 63.5873 13.5114C64.1758 12.9229 64.296 12.8279 64.4732 12.8279C64.6251 12.8279 64.7263 12.771 64.8719 12.6128C65.0301 12.4419 65.1377 12.3913 65.4604 12.3344C65.6945 12.2964 66.1502 12.1382 66.5552 11.942C67.1943 11.6446 67.3525 11.6003 68.4536 11.4104C69.966 11.1447 70.0799 11.1383 70.2318 11.3345ZM122.894 13.5873C124.495 13.7076 124.508 13.7139 124.73 13.8911C124.9 14.0303 124.964 14.1315 124.976 14.2961C124.995 14.5112 124.995 14.5112 124.439 14.7707C123.85 15.0491 123.084 15.201 120.996 15.4604C120.154 15.5617 120.123 15.5617 119.484 15.4288C119.129 15.3529 118.636 15.2959 118.389 15.2959C118.142 15.2959 117.047 15.1504 115.946 14.9732C114.155 14.6884 113.7 14.5998 113.984 14.5998C114.25 14.5998 116.478 14.2012 116.826 14.0936C117.054 14.024 117.414 13.967 117.642 13.967C117.864 13.967 118.237 13.9101 118.477 13.8404C118.87 13.7202 120.534 13.4861 121.066 13.4671C121.186 13.4671 122.009 13.5177 122.894 13.5873ZM104.866 22.858C107.536 23.0036 107.973 23.0415 108.207 23.1491C108.409 23.2377 108.625 23.2694 109.061 23.2694C109.403 23.2694 109.605 23.2947 109.548 23.3263C109.498 23.3516 109.042 23.4845 108.536 23.6111C108.03 23.744 106.891 24.0477 106.005 24.2882C103.929 24.8577 102.6 25.0412 100.493 25.0412C99.2652 25.0412 98.9488 25.0159 97.2339 24.7881C94.7723 24.4654 94.9305 24.497 94.9305 24.3262C94.9305 24.2186 95.0381 24.13 95.3924 23.9465C95.8101 23.725 96.0316 23.6617 97.9363 23.2947C100.626 22.7631 101.303 22.6492 101.575 22.6745C101.695 22.6872 103.176 22.7694 104.866 22.858Z" fill="#302E2D"/>
<g clip-path="url(#clip0_596_122)">
<path d="M172.316 55.5202C172.316 49.8987 168.32 45.6177 160.741 45.6177H145.741V80.9469H151.293V66.6097H161.36C164.159 66.6097 166.081 67.6903 166.081 70.9439V80.9528H171.685V70.4302C171.685 65.9424 169.139 64.1355 165.98 63.982V63.7281C168.727 62.9014 172.31 60.7874 172.31 55.5261L172.316 55.5202ZM160.069 61.9684H151.299L151.352 50.1586H159.916C164.637 50.1586 166.611 52.739 166.611 55.9336C166.611 59.1281 164.536 61.9684 160.075 61.9684H160.069ZM22.6851 44.9386L18.7245 41L14.7403 44.9622L18.7068 48.9008L22.691 44.9386H22.6851ZM54.8297 45.6177L40.614 80.9469H46.5844L50.321 71.6112H65.6271L69.3107 80.9469H75.3813L61.2127 45.6177H54.8297ZM51.7178 67.0762L57.8415 51.4458H58.1008L64.1183 67.0762H51.7178ZM37.4195 49.2433L33.4825 45.2397L22.3727 56.028C20.3512 57.9885 17.0684 57.9885 15.0527 56.028L3.93704 45.2338L0 49.2433V80.9528H5.61087V54.6876L11.1098 60.0257C13.202 62.0629 15.9603 63.0785 18.7127 63.0785C21.4651 63.0785 24.2175 62.0629 26.3157 60.0257L31.7085 54.788V80.9469H37.4254V49.2433H37.4195ZM195.65 45.6236H189.267L175.051 80.9528H181.021L184.758 71.6171H200.064L203.748 80.9528H209.818L195.655 45.6236H195.65ZM186.155 67.0821L192.278 51.4517H192.538L198.555 67.0821H186.155ZM103.123 72.7036H102.864L84.9115 45.6177H78.6347V80.9469H84.2396V54.1798H84.499L102.192 80.9469L108.728 81V45.6177H103.123V72.6977V72.7036ZM112.394 50.2176H124.488V80.9587H129.94L129.993 50.2176H142.081V45.6177H112.4V50.2058L112.394 50.2176Z" fill="#302E2D"/>
</g>
<mask id="path-3-outside-1_596_122" maskUnits="userSpaceOnUse" x="216" y="63" width="43" height="29" fill="black">
<rect fill="white" x="216" y="63" width="43" height="29"/>
<path d="M217.484 90.92V65.144H220.796L221.084 67.88H221.3C221.78 66.992 222.5 66.248 223.46 65.648C224.444 65.024 225.608 64.712 226.952 64.712C228.344 64.712 229.616 65.072 230.768 65.792C231.92 66.488 232.832 67.532 233.504 68.924C234.2 70.292 234.548 72.008 234.548 74.072C234.548 76.112 234.188 77.828 233.468 79.22C232.772 80.612 231.824 81.668 230.624 82.388C229.424 83.084 228.08 83.432 226.592 83.432C225.272 83.432 224.168 83.168 223.28 82.64C222.392 82.112 221.732 81.512 221.3 80.84V90.92H217.484ZM225.944 79.796C227.288 79.796 228.404 79.316 229.292 78.356C230.204 77.396 230.66 75.956 230.66 74.036C230.66 72.116 230.204 70.688 229.292 69.752C228.404 68.816 227.288 68.348 225.944 68.348C224.576 68.348 223.436 68.828 222.524 69.788C221.636 70.724 221.192 72.152 221.192 74.072C221.192 75.968 221.636 77.396 222.524 78.356C223.436 79.316 224.576 79.796 225.944 79.796ZM241.734 90.92L245.982 81.524H244.938L237.99 65.144H242.13L247.458 78.212L253.11 65.144H257.106L245.766 90.92H241.734Z"/>
</mask>
<path d="M217.484 90.92V65.144H220.796L221.084 67.88H221.3C221.78 66.992 222.5 66.248 223.46 65.648C224.444 65.024 225.608 64.712 226.952 64.712C228.344 64.712 229.616 65.072 230.768 65.792C231.92 66.488 232.832 67.532 233.504 68.924C234.2 70.292 234.548 72.008 234.548 74.072C234.548 76.112 234.188 77.828 233.468 79.22C232.772 80.612 231.824 81.668 230.624 82.388C229.424 83.084 228.08 83.432 226.592 83.432C225.272 83.432 224.168 83.168 223.28 82.64C222.392 82.112 221.732 81.512 221.3 80.84V90.92H217.484ZM225.944 79.796C227.288 79.796 228.404 79.316 229.292 78.356C230.204 77.396 230.66 75.956 230.66 74.036C230.66 72.116 230.204 70.688 229.292 69.752C228.404 68.816 227.288 68.348 225.944 68.348C224.576 68.348 223.436 68.828 222.524 69.788C221.636 70.724 221.192 72.152 221.192 74.072C221.192 75.968 221.636 77.396 222.524 78.356C223.436 79.316 224.576 79.796 225.944 79.796ZM241.734 90.92L245.982 81.524H244.938L237.99 65.144H242.13L247.458 78.212L253.11 65.144H257.106L245.766 90.92H241.734Z" fill="url(#paint0_linear_596_122)"/>
<path d="M217.484 90.92H216.484V91.92H217.484V90.92ZM217.484 65.144V64.144H216.484V65.144H217.484ZM220.796 65.144L221.791 65.0393L221.696 64.144H220.796V65.144ZM221.084 67.88L220.089 67.9847L220.184 68.88H221.084V67.88ZM221.3 67.88V68.88H221.896L222.18 68.3555L221.3 67.88ZM223.46 65.648L223.99 66.496L223.996 66.4925L223.46 65.648ZM230.768 65.792L230.238 66.64L230.244 66.644L230.251 66.6479L230.768 65.792ZM233.504 68.924L232.603 69.3587L232.608 69.3682L232.613 69.3775L233.504 68.924ZM233.468 79.22L232.58 78.7605L232.574 78.7728L233.468 79.22ZM230.624 82.388L231.126 83.253L231.132 83.2493L231.138 83.2455L230.624 82.388ZM223.28 82.64L222.769 83.4995L222.769 83.4995L223.28 82.64ZM221.3 80.84L222.141 80.2992L220.3 77.4352V80.84H221.3ZM221.3 90.92V91.92H222.3V90.92H221.3ZM229.292 78.356L228.567 77.6672L228.558 77.677L229.292 78.356ZM229.292 69.752L228.566 70.4403L228.576 70.4499L229.292 69.752ZM222.524 69.788L221.799 69.0992L221.799 69.0997L222.524 69.788ZM222.524 78.356L221.79 79.0351L221.799 79.0447L222.524 78.356ZM218.484 90.92V65.144H216.484V90.92H218.484ZM217.484 66.144H220.796V64.144H217.484V66.144ZM219.801 65.2487L220.089 67.9847L222.079 67.7753L221.791 65.0393L219.801 65.2487ZM221.084 68.88H221.3V66.88H221.084V68.88ZM222.18 68.3555C222.568 67.6377 223.159 67.0156 223.99 66.496L222.93 64.8C221.841 65.4804 220.992 66.3463 220.42 67.4045L222.18 68.3555ZM223.996 66.4925C224.796 65.9849 225.768 65.712 226.952 65.712V63.712C225.448 63.712 224.092 64.0631 222.924 64.8035L223.996 66.4925ZM226.952 65.712C228.161 65.712 229.249 66.0219 230.238 66.64L231.298 64.944C229.983 64.1221 228.527 63.712 226.952 63.712V65.712ZM230.251 66.6479C231.213 67.2294 232.003 68.1147 232.603 69.3587L234.405 68.4893C233.661 66.9493 232.627 65.7466 231.285 64.9361L230.251 66.6479ZM232.613 69.3775C233.217 70.5651 233.548 72.1138 233.548 74.072H235.548C235.548 71.9022 235.183 70.0189 234.395 68.4705L232.613 69.3775ZM233.548 74.072C233.548 75.9987 233.208 77.5469 232.58 78.7606L234.356 79.6794C235.168 78.1091 235.548 76.2253 235.548 74.072H233.548ZM232.574 78.7728C231.953 80.0144 231.129 80.9191 230.11 81.5305L231.138 83.2455C232.519 82.4169 233.591 81.2096 234.362 79.6672L232.574 78.7728ZM230.122 81.523C229.086 82.1241 227.917 82.432 226.592 82.432V84.432C228.243 84.432 229.762 84.0439 231.126 83.253L230.122 81.523ZM226.592 82.432C225.403 82.432 224.487 82.1943 223.791 81.7805L222.769 83.4995C223.849 84.1417 225.141 84.432 226.592 84.432V82.432ZM223.791 81.7805C222.999 81.3093 222.468 80.8083 222.141 80.2992L220.459 81.3808C220.996 82.2157 221.785 82.9147 222.769 83.4995L223.791 81.7805ZM220.3 80.84V90.92H222.3V80.84H220.3ZM221.3 89.92H217.484V91.92H221.3V89.92ZM225.944 80.796C227.558 80.796 228.943 80.206 230.026 79.035L228.558 77.677C227.865 78.426 227.018 78.796 225.944 78.796V80.796ZM230.017 79.0447C231.171 77.8298 231.66 76.0977 231.66 74.036H229.66C229.66 75.8143 229.237 76.9622 228.567 77.6673L230.017 79.0447ZM231.66 74.036C231.66 71.9767 231.172 70.2488 230.008 69.0541L228.576 70.4499C229.236 71.1272 229.66 72.2553 229.66 74.036H231.66ZM230.017 69.0637C228.932 67.9196 227.549 67.348 225.944 67.348V69.348C227.027 69.348 227.876 69.7124 228.567 70.4403L230.017 69.0637ZM225.944 67.348C224.312 67.348 222.907 67.9332 221.799 69.0992L223.249 70.4767C223.965 69.7228 224.84 69.348 225.944 69.348V67.348ZM221.799 69.0997C220.665 70.2948 220.192 72.0188 220.192 74.072H222.192C222.192 72.2852 222.607 71.1532 223.249 70.4763L221.799 69.0997ZM220.192 74.072C220.192 76.1076 220.668 77.8218 221.79 79.035L223.258 77.677C222.604 76.9702 222.192 75.8284 222.192 74.072H220.192ZM221.799 79.0447C222.907 80.2108 224.312 80.796 225.944 80.796V78.796C224.84 78.796 223.965 78.4212 223.249 77.6673L221.799 79.0447ZM241.734 90.92L240.823 90.508L240.184 91.92H241.734V90.92ZM245.982 81.524L246.893 81.936L247.531 80.524H245.982V81.524ZM244.938 81.524L244.017 81.9145L244.276 82.524H244.938V81.524ZM237.99 65.144V64.144H236.48L237.069 65.5345L237.99 65.144ZM242.13 65.144L243.056 64.7665L242.802 64.144H242.13V65.144ZM247.458 78.212L246.532 78.5895L247.431 80.794L248.376 78.609L247.458 78.212ZM253.11 65.144V64.144H252.453L252.192 64.747L253.11 65.144ZM257.106 65.144L258.021 65.5467L258.638 64.144H257.106V65.144ZM245.766 90.92V91.92H246.418L246.681 91.3227L245.766 90.92ZM242.645 91.332L246.893 81.936L245.071 81.112L240.823 90.508L242.645 91.332ZM245.982 80.524H244.938V82.524H245.982V80.524ZM245.859 81.1335L238.911 64.7535L237.069 65.5345L244.017 81.9145L245.859 81.1335ZM237.99 66.144H242.13V64.144H237.99V66.144ZM241.204 65.5215L246.532 78.5895L248.384 77.8345L243.056 64.7665L241.204 65.5215ZM248.376 78.609L254.028 65.541L252.192 64.747L246.54 77.815L248.376 78.609ZM253.11 66.144H257.106V64.144H253.11V66.144ZM256.191 64.7413L244.851 90.5173L246.681 91.3227L258.021 65.5467L256.191 64.7413ZM245.766 89.92H241.734V91.92H245.766V89.92Z" fill="black" mask="url(#path-3-outside-1_596_122)"/>
<defs>
<linearGradient id="paint0_linear_596_122" x1="249.113" y1="48.4807" x2="211.899" y2="57.3452" gradientUnits="userSpaceOnUse">
<stop offset="0.372396" stop-color="#FF97D6"/>
<stop offset="0.802083" stop-color="#F8B994"/>
</linearGradient>
<clipPath id="clip0_596_122">
<rect width="210" height="40" fill="white" transform="translate(0 41)"/>
</clipPath>
</defs>
</svg>
